<svg xmlns="http://www.w3.org/2000/svg" width="210" height="297" viewBox="0 0 210 297">
  <defs>
    <linearGradient id="g5" x1="0" y1="0" x2="1" y2="1">
      <stop offset="0" stop-color="#111827"/>
      <stop offset="1" stop-color="#334155"/>
    </linearGradient>
  </defs>
  <rect width="210" height="297" fill="#ffffff"/>

  <!-- Header band -->
  <rect x="0" y="0" width="210" height="46" fill="url(#g5)"/>
  <circle cx="24" cy="23" r="14" fill="#e2e8f0" opacity="0.95"/>
  <rect x="46" y="14" width="120" height="8" rx="2" fill="#ffffff" opacity="0.92"/>
  <rect x="46" y="26" width="78" height="5" rx="2" fill="#cbd5e1" opacity="0.95"/>

  <!-- Two-column layout -->
  <rect x="12" y="60" width="118" height="225" rx="8" fill="#f8fafc" stroke="#e2e8f0"/>
  <rect x="140" y="60" width="58" height="225" rx="8" fill="#f8fafc" stroke="#e2e8f0"/>

  <!-- Left sections -->
  <rect x="20" y="72" width="66" height="6" rx="2" fill="#111827" opacity="0.85"/>
  <rect x="20" y="84" width="98" height="4" rx="2" fill="#64748b" opacity="0.75"/>
  <rect x="20" y="92" width="90" height="4" rx="2" fill="#64748b" opacity="0.55"/>

  <rect x="20" y="110" width="78" height="6" rx="2" fill="#111827" opacity="0.75"/>
  <rect x="20" y="122" width="106" height="26" rx="6" fill="#ffffff" stroke="#e2e8f0"/>
  <rect x="20" y="156" width="106" height="26" rx="6" fill="#ffffff" stroke="#e2e8f0"/>
  <rect x="20" y="190" width="106" height="26" rx="6" fill="#ffffff" stroke="#e2e8f0"/>

  <!-- Right sections -->
  <rect x="148" y="72" width="36" height="6" rx="2" fill="#111827" opacity="0.75"/>
  <rect x="148" y="86" width="44" height="4" rx="2" fill="#64748b" opacity="0.65"/>
  <rect x="148" y="96" width="40" height="4" rx="2" fill="#64748b" opacity="0.5"/>

  <rect x="148" y="116" width="36" height="6" rx="2" fill="#111827" opacity="0.75"/>
  <rect x="148" y="130" width="46" height="4" rx="2" fill="#64748b" opacity="0.65"/>
  <rect x="148" y="140" width="42" height="4" rx="2" fill="#64748b" opacity="0.5"/>

  <text x="12" y="292" font-size="7" font-family="Arial, sans-serif" fill="#94a3b8">Plantilla 5 (preview)</text>
</svg>

