<svg xmlns="http://www.w3.org/2000/svg" width="210" height="297" viewBox="0 0 210 297">
  <defs>
    <linearGradient id="g" x1="0" y1="0" x2="1" y2="1">
      <stop offset="0" stop-color="#0f766e"/>
      <stop offset="1" stop-color="#0ea5e9"/>
    </linearGradient>
  </defs>
  <rect width="210" height="297" fill="#ffffff"/>
  <rect x="0" y="0" width="70" height="297" fill="#f1f5f9"/>
  <rect x="0" y="0" width="8" height="297" fill="url(#g)"/>
  <rect x="78" y="18" width="114" height="10" rx="2" fill="#0f172a" opacity="0.85"/>
  <rect x="78" y="34" width="80" height="6" rx="2" fill="#64748b" opacity="0.85"/>
  <circle cx="35" cy="32" r="16" fill="#e2e8f0"/>
  <rect x="16" y="60" width="38" height="5" rx="2" fill="#94a3b8"/>
  <rect x="16" y="70" width="48" height="5" rx="2" fill="#cbd5e1"/>
  <rect x="78" y="56" width="114" height="3" fill="#e2e8f0"/>
  <rect x="78" y="66" width="92" height="5" rx="2" fill="#0ea5e9" opacity="0.9"/>
  <rect x="78" y="78" width="105" height="5" rx="2" fill="#0f172a" opacity="0.75"/>
  <rect x="78" y="90" width="110" height="5" rx="2" fill="#0f172a" opacity="0.55"/>
  <rect x="78" y="112" width="70" height="5" rx="2" fill="#0ea5e9" opacity="0.9"/>
  <rect x="78" y="124" width="114" height="34" rx="4" fill="#f8fafc" stroke="#e2e8f0"/>
  <rect x="78" y="170" width="114" height="34" rx="4" fill="#f8fafc" stroke="#e2e8f0"/>
  <rect x="78" y="216" width="114" height="34" rx="4" fill="#f8fafc" stroke="#e2e8f0"/>
  <text x="78" y="280" font-size="8" font-family="Arial, sans-serif" fill="#94a3b8">Plantilla 4 (preview)</text>
</svg>

