<svg xmlns="http://www.w3.org/2000/svg" width="210" height="297" viewBox="0 0 210 297">
  <defs>
    <linearGradient id="t6g" x1="0" y1="0" x2="1" y2="1">
      <stop offset="0" stop-color="#4f46e5"/>
      <stop offset="1" stop-color="#06b6d4"/>
    </linearGradient>
    <linearGradient id="t6bg" x1="0" y1="0" x2="0" y2="1">
      <stop offset="0" stop-color="#f8fafc"/>
      <stop offset="1" stop-color="#ffffff"/>
    </linearGradient>
  </defs>

  <!-- Hoja -->
  <rect width="210" height="297" fill="url(#t6bg)"/>

  <!-- Header (clean) -->
  <rect x="0" y="0" width="210" height="42" fill="#ffffff"/>
  <rect x="0" y="40" width="210" height="2" fill="url(#t6g)"/>
  <circle cx="22" cy="21" r="12" fill="#e2e8f0"/>
  <rect x="40" y="12" width="110" height="7" rx="2" fill="#0f172a" opacity="0.88"/>
  <rect x="40" y="24" width="74" height="4.5" rx="2" fill="#64748b" opacity="0.85"/>
  <rect x="154" y="12" width="44" height="4.5" rx="2" fill="#94a3b8" opacity="0.9"/>
  <rect x="154" y="20" width="36" height="4.5" rx="2" fill="#cbd5e1" opacity="0.9"/>
  <rect x="154" y="28" width="40" height="4.5" rx="2" fill="#cbd5e1" opacity="0.9"/>

  <!-- Layout: columna izquierda con bloques + contenido principal con timeline -->
  <rect x="12" y="56" width="64" height="229" rx="10" fill="#ffffff" stroke="#e2e8f0"/>
  <rect x="86" y="56" width="112" height="229" rx="10" fill="#ffffff" stroke="#e2e8f0"/>

  <!-- Left column sections -->
  <rect x="20" y="68" width="40" height="5.5" rx="2" fill="url(#t6g)" opacity="0.95"/>
  <rect x="20" y="80" width="48" height="4" rx="2" fill="#64748b" opacity="0.7"/>
  <rect x="20" y="88" width="42" height="4" rx="2" fill="#64748b" opacity="0.55"/>

  <rect x="20" y="108" width="38" height="5.5" rx="2" fill="url(#t6g)" opacity="0.8"/>
  <rect x="20" y="120" width="52" height="18" rx="6" fill="#f8fafc" stroke="#e2e8f0"/>
  <rect x="20" y="144" width="52" height="18" rx="6" fill="#f8fafc" stroke="#e2e8f0"/>
  <rect x="20" y="168" width="52" height="18" rx="6" fill="#f8fafc" stroke="#e2e8f0"/>

  <rect x="20" y="198" width="34" height="5.5" rx="2" fill="url(#t6g)" opacity="0.8"/>
  <rect x="20" y="210" width="50" height="4" rx="2" fill="#94a3b8" opacity="0.85"/>
  <rect x="20" y="218" width="44" height="4" rx="2" fill="#cbd5e1" opacity="0.9"/>
  <rect x="20" y="226" width="48" height="4" rx="2" fill="#cbd5e1" opacity="0.9"/>

  <!-- Main column: title + timeline -->
  <rect x="94" y="68" width="58" height="6" rx="2" fill="#0f172a" opacity="0.82"/>
  <rect x="94" y="80" width="96" height="3" rx="2" fill="#e2e8f0"/>

  <!-- Timeline line -->
  <rect x="100" y="92" width="2" height="176" rx="1" fill="#e2e8f0"/>

  <!-- Timeline items -->
  <circle cx="101" cy="108" r="4" fill="url(#t6g)"/>
  <rect x="110" y="102" width="78" height="5" rx="2" fill="#0f172a" opacity="0.75"/>
  <rect x="110" y="112" width="64" height="4" rx="2" fill="#64748b" opacity="0.7"/>
  <rect x="110" y="120" width="72" height="4" rx="2" fill="#64748b" opacity="0.5"/>

  <circle cx="101" cy="152" r="4" fill="url(#t6g)"/>
  <rect x="110" y="146" width="70" height="5" rx="2" fill="#0f172a" opacity="0.75"/>
  <rect x="110" y="156" width="68" height="4" rx="2" fill="#64748b" opacity="0.7"/>
  <rect x="110" y="164" width="80" height="4" rx="2" fill="#64748b" opacity="0.5"/>

  <circle cx="101" cy="196" r="4" fill="url(#t6g)"/>
  <rect x="110" y="190" width="76" height="5" rx="2" fill="#0f172a" opacity="0.75"/>
  <rect x="110" y="200" width="60" height="4" rx="2" fill="#64748b" opacity="0.7"/>
  <rect x="110" y="208" width="74" height="4" rx="2" fill="#64748b" opacity="0.5"/>

  <text x="12" y="292" font-size="7" font-family="Arial, sans-serif" fill="#94a3b8">Plantilla 6 (preview)</text>
</svg>

